<svg width="877" height="228" viewBox="0 0 877 228" fill="none" xmlns="http://www.w3.org/2000/svg">
<path d="M40.5 217.455L57.7841 165.807H136.534L153.92 217.455H194.42L120.58 8H73.7386L0 217.455H40.5ZM68.0114 135.33L96.3409 50.9546H97.9773L126.307 135.33H68.0114Z" fill="white"/>
<path d="M333.36 101.886C328.246 75.2955 306.974 58.3182 270.155 58.3182C232.315 58.3182 206.542 76.9318 206.644 105.977C206.542 128.886 220.655 144.023 250.826 150.261L277.621 155.886C292.042 159.057 298.792 164.886 298.792 173.784C298.792 184.523 287.133 192.602 269.542 192.602C252.565 192.602 241.519 185.239 238.349 171.125L202.246 174.602C206.849 203.443 231.087 220.523 269.644 220.523C308.917 220.523 336.633 200.17 336.735 170.409C336.633 148.011 322.212 134.307 292.553 127.864L265.758 122.136C249.803 118.557 243.462 113.034 243.565 103.932C243.462 93.2955 255.224 85.9318 270.667 85.9318C287.746 85.9318 296.746 95.2386 299.61 105.568L333.36 101.886Z" fill="white"/>
<path d="M482.783 101.886C477.669 75.2955 456.396 58.3182 419.578 58.3182C381.737 58.3182 355.964 76.9318 356.067 105.977C355.964 128.886 370.078 144.023 400.248 150.261L427.044 155.886C441.464 159.057 448.214 164.886 448.214 173.784C448.214 184.523 436.555 192.602 418.964 192.602C401.987 192.602 390.942 185.239 387.771 171.125L351.669 174.602C356.271 203.443 380.51 220.523 419.067 220.523C458.339 220.523 486.055 200.17 486.158 170.409C486.055 148.011 471.635 134.307 441.976 127.864L415.18 122.136C399.226 118.557 392.885 113.034 392.987 103.932C392.885 93.2955 404.646 85.9318 420.089 85.9318C437.169 85.9318 446.169 95.2386 449.033 105.568L482.783 101.886Z" fill="white"/>
<path d="M553.25 220.625C577.898 220.625 592.625 209.068 599.375 195.875H600.603V217.455H636.194V112.318C636.194 70.7955 602.341 58.3182 572.375 58.3182C539.341 58.3182 513.978 73.0454 505.796 101.682L540.364 106.591C544.046 95.8523 554.478 86.6477 572.58 86.6477C589.762 86.6477 599.171 95.4432 599.171 110.886V111.5C599.171 122.136 588.023 122.648 560.307 125.614C529.83 128.886 500.682 137.989 500.682 173.375C500.682 204.261 523.285 220.625 553.25 220.625ZM562.864 193.42C547.421 193.42 536.375 186.364 536.375 172.761C536.375 158.545 548.75 152.614 565.319 150.261C575.034 148.932 594.466 146.477 599.273 142.591V161.102C599.273 178.591 585.16 193.42 562.864 193.42Z" fill="white"/>
<path d="M701.804 125.409C701.804 102.705 715.508 89.6136 735.042 89.6136C754.167 89.6136 765.622 102.193 765.622 123.159V217.455H802.645V117.432C802.747 79.7955 781.27 58.3182 748.849 58.3182C725.326 58.3182 709.167 69.5682 702.008 87.0568H700.167V60.3636H664.781V217.455H701.804V125.409Z" fill="white"/>
<path d="M854.448 219.705C866.516 219.705 876.845 209.682 876.948 197.205C876.845 184.932 866.516 174.909 854.448 174.909C841.97 174.909 831.845 184.932 831.948 197.205C831.845 209.682 841.97 219.705 854.448 219.705Z" fill="white"/>
</svg>
