<svg width="796" height="234" viewBox="0 0 796 234" fill="none" xmlns="http://www.w3.org/2000/svg">
<path d="M177.12 197.32C178.848 201.16 181.536 204.424 185.184 207.112C189.024 209.608 190.944 211.72 190.944 213.448V214.024C190.944 216.328 189.12 217.48 185.472 217.48H144.864C141.216 217.48 139.392 216.328 139.392 214.024V213.448C139.392 212.296 140.064 211.144 141.408 209.992C142.752 208.84 144.096 207.88 145.44 207.112C146.976 206.344 148.224 205.096 149.184 203.368C150.144 201.64 150.144 199.624 149.184 197.32L135.36 163.336H42.048L29.376 197.32C28.416 199.624 28.32 201.64 29.088 203.368C30.048 205.096 31.2 206.344 32.544 207.112C34.08 207.88 35.52 208.84 36.864 209.992C38.4 211.144 39.168 212.296 39.168 213.448V214.024C39.168 216.328 37.152 217.48 33.12 217.48H5.76C1.92 217.48 0 216.328 0 214.024V213.448C0 211.912 1.824 209.896 5.472 207.4C9.312 204.712 12 201.352 13.536 197.32L77.472 34.024C78.816 30.76 77.664 27.4 74.016 23.944C70.368 20.296 68.544 17.992 68.544 17.032V16.168C68.544 14.056 69.888 13 72.576 13H89.28C95.616 13 100.128 16.168 102.816 22.504L177.12 197.32ZM46.944 150.952H130.464L87.264 44.104L46.944 150.952Z" fill="black"/>
<path d="M257.758 220.072C240.094 220.072 225.886 216.52 215.134 209.416C204.574 202.312 199.294 194.92 199.294 187.24C199.294 180.136 203.038 176.584 210.526 176.584C213.79 176.584 216.382 177.832 218.302 180.328C220.414 182.632 222.238 185.512 223.774 188.968C225.31 192.424 227.134 195.88 229.246 199.336C231.55 202.792 235.102 205.768 239.902 208.264C244.702 210.568 250.654 211.72 257.758 211.72C267.358 211.72 275.23 209.512 281.374 205.096C287.518 200.488 290.59 194.248 290.59 186.376C290.59 178.696 287.518 172.744 281.374 168.52C275.422 164.296 268.126 161.32 259.486 159.592C250.846 157.672 242.206 155.56 233.566 153.256C224.926 150.952 217.534 146.728 211.39 140.584C205.438 134.44 202.462 126.184 202.462 115.816C202.462 104.68 207.55 95.368 217.726 87.88C227.902 80.2 240.862 76.36 256.606 76.36C273.31 76.36 286.846 79.912 297.214 87.016C307.582 94.12 312.766 101.896 312.766 110.344C312.766 113.224 311.71 115.624 309.598 117.544C307.678 119.464 305.278 120.424 302.398 120.424C298.942 120.424 295.966 118.6 293.47 114.952C290.974 111.304 288.862 107.272 287.134 102.856C285.598 98.44 282.334 94.408 277.342 90.76C272.35 87.112 265.822 85.288 257.758 85.288C249.31 85.288 242.206 87.688 236.446 92.488C230.878 97.288 228.094 103.24 228.094 110.344C228.094 117.832 231.07 123.688 237.022 127.912C243.166 131.944 250.558 134.92 259.198 136.84C267.838 138.76 276.382 140.872 284.83 143.176C293.47 145.48 300.766 149.8 306.718 156.136C312.862 162.28 315.934 170.632 315.934 181.192C315.934 192.328 310.558 201.64 299.806 209.128C289.246 216.424 275.23 220.072 257.758 220.072Z" fill="black"/>
<path d="M392.195 220.072C374.531 220.072 360.323 216.52 349.571 209.416C339.011 202.312 333.731 194.92 333.731 187.24C333.731 180.136 337.475 176.584 344.963 176.584C348.227 176.584 350.819 177.832 352.739 180.328C354.851 182.632 356.675 185.512 358.211 188.968C359.747 192.424 361.571 195.88 363.683 199.336C365.987 202.792 369.539 205.768 374.339 208.264C379.139 210.568 385.091 211.72 392.195 211.72C401.795 211.72 409.667 209.512 415.811 205.096C421.955 200.488 425.027 194.248 425.027 186.376C425.027 178.696 421.955 172.744 415.811 168.52C409.859 164.296 402.563 161.32 393.923 159.592C385.283 157.672 376.643 155.56 368.003 153.256C359.363 150.952 351.971 146.728 345.827 140.584C339.875 134.44 336.899 126.184 336.899 115.816C336.899 104.68 341.987 95.368 352.163 87.88C362.339 80.2 375.299 76.36 391.043 76.36C407.747 76.36 421.283 79.912 431.651 87.016C442.019 94.12 447.203 101.896 447.203 110.344C447.203 113.224 446.147 115.624 444.035 117.544C442.115 119.464 439.715 120.424 436.835 120.424C433.379 120.424 430.403 118.6 427.907 114.952C425.411 111.304 423.299 107.272 421.571 102.856C420.035 98.44 416.771 94.408 411.779 90.76C406.787 87.112 400.259 85.288 392.195 85.288C383.747 85.288 376.643 87.688 370.883 92.488C365.315 97.288 362.531 103.24 362.531 110.344C362.531 117.832 365.507 123.688 371.459 127.912C377.603 131.944 384.995 134.92 393.635 136.84C402.275 138.76 410.819 140.872 419.267 143.176C427.907 145.48 435.203 149.8 441.155 156.136C447.299 162.28 450.371 170.632 450.371 181.192C450.371 192.328 444.995 201.64 434.243 209.128C423.683 216.424 409.667 220.072 392.195 220.072Z" fill="black"/>
<path d="M588.265 194.44C588.649 198.472 589.705 201.64 591.433 203.944C593.161 206.056 594.985 207.4 596.905 207.976C598.825 208.36 600.553 208.936 602.089 209.704C603.625 210.472 604.393 211.624 604.393 213.16C604.393 217.192 598.249 219.208 585.961 219.208C579.049 219.208 573.961 217.96 570.697 215.464C567.433 212.776 565.513 207.688 564.937 200.2C557.641 213.64 543.817 220.36 523.465 220.36C507.337 220.36 494.377 216.52 484.585 208.84C474.793 201.16 469.897 190.504 469.897 176.872C469.705 163.432 474.505 152.968 484.297 145.48C494.281 137.992 507.049 134.248 522.601 134.248C537.961 134.248 549.769 138.088 558.025 145.768L557.449 137.992C555.721 120.328 552.169 107.176 546.793 98.536C541.417 89.896 533.161 85.576 522.025 85.576C515.305 85.576 509.737 87.304 505.321 90.76C500.905 94.216 497.833 97.96 496.105 101.992C494.569 106.024 492.649 109.768 490.345 113.224C488.041 116.68 485.353 118.408 482.281 118.408C478.825 118.408 476.041 117.448 473.929 115.528C472.009 113.608 471.049 111.016 471.049 107.752C471.049 99.688 475.753 92.488 485.161 86.152C494.761 79.624 507.049 76.36 522.025 76.36C539.497 76.36 553.417 81.736 563.785 92.488C574.345 103.048 580.585 117.928 582.505 137.128L588.265 194.44ZM529.801 211.144C539.209 211.144 546.889 208.168 552.841 202.216C558.793 196.072 561.577 188.488 561.193 179.464L560.041 166.504C558.505 159.592 554.857 154.024 549.097 149.8C543.529 145.576 536.617 143.464 528.361 143.464C518.569 143.464 510.601 146.248 504.457 151.816C498.313 157.384 495.241 164.584 495.241 173.416C495.241 184.168 498.409 193.192 504.745 200.488C511.273 207.592 519.625 211.144 529.801 211.144Z" fill="black"/>
<path d="M752.96 196.744C753.152 199.816 754.112 202.312 755.84 204.232C757.568 206.152 759.2 207.784 760.736 209.128C762.464 210.28 763.328 211.528 763.328 212.872V214.024C763.328 216.52 761.312 217.768 757.28 217.768H723.008C718.976 217.768 716.96 216.52 716.96 214.024V212.872C716.96 211.528 718.688 209.512 722.144 206.824C725.792 204.136 727.52 200.872 727.328 197.032L724.448 139.432C723.68 122.344 720.128 109.48 713.792 100.84C707.648 92.008 699.392 87.592 689.024 87.592C678.464 87.592 669.824 91.336 663.104 98.824C656.384 106.312 653.024 115.816 653.024 127.336V197.32C653.024 201.16 654.944 204.328 658.784 206.824C662.624 209.32 664.544 211.336 664.544 212.872V214.024C664.544 216.52 662.528 217.768 658.496 217.768H622.496C618.656 217.768 616.736 216.52 616.736 214.024V212.872C616.736 211.336 618.56 209.32 622.208 206.824C626.048 204.328 627.968 201.16 627.968 197.32V110.056C627.968 106.408 626.912 103.624 624.8 101.704C622.88 99.592 620.864 97.96 618.752 96.808C616.832 95.656 615.872 94.408 615.872 93.064V92.2C615.872 90.472 617.408 89.032 620.48 87.88L642.08 77.512C644.768 76.168 646.784 75.976 648.128 76.936C649.472 77.896 650.144 79.528 650.144 81.832V102.856C654.368 94.792 660.416 88.36 668.288 83.56C676.352 78.76 685.28 76.36 695.072 76.36C710.048 76.36 722.528 81.64 732.512 92.2C742.688 102.76 748.448 118.696 749.792 140.008L752.96 196.744Z" fill="black"/>
</svg>
